<svg width="20" height="20" viewBox="0 0 20 20" fill="none" xmlns="http://www.w3.org/2000/svg">
<g id="basil:linkedin-outline">
<path id="Vector" fill-rule="evenodd" clip-rule="evenodd" d="M4.16667 1.0415C3.55888 1.0415 2.97598 1.28295 2.54621 1.71272C2.11644 2.14249 1.875 2.72538 1.875 3.33317C1.875 3.94096 2.11644 4.52385 2.54621 4.95362C2.97598 5.38339 3.55888 5.62484 4.16667 5.62484C4.77445 5.62484 5.35735 5.38339 5.78712 4.95362C6.21689 4.52385 6.45833 3.94096 6.45833 3.33317C6.45833 2.72538 6.21689 2.14249 5.78712 1.71272C5.35735 1.28295 4.77445 1.0415 4.16667 1.0415ZM3.125 3.33317C3.125 3.0569 3.23475 2.79195 3.4301 2.5966C3.62545 2.40125 3.8904 2.2915 4.16667 2.2915C4.44293 2.2915 4.70789 2.40125 4.90324 2.5966C5.09859 2.79195 5.20833 3.0569 5.20833 3.33317C5.20833 3.60944 5.09859 3.87439 4.90324 4.06974C4.70789 4.26509 4.44293 4.37484 4.16667 4.37484C3.8904 4.37484 3.62545 4.26509 3.4301 4.06974C3.23475 3.87439 3.125 3.60944 3.125 3.33317ZM1.875 6.6665C1.875 6.50074 1.94085 6.34177 2.05806 6.22456C2.17527 6.10735 2.33424 6.0415 2.5 6.0415H5.83333C5.99909 6.0415 6.15807 6.10735 6.27528 6.22456C6.39249 6.34177 6.45833 6.50074 6.45833 6.6665V17.4998C6.45833 17.6656 6.39249 17.8246 6.27528 17.9418C6.15807 18.059 5.99909 18.1248 5.83333 18.1248H2.5C2.33424 18.1248 2.17527 18.059 2.05806 17.9418C1.94085 17.8246 1.875 17.6656 1.875 17.4998V6.6665ZM3.125 7.2915V16.8748H5.20833V7.2915H3.125ZM7.70833 6.6665C7.70833 6.50074 7.77418 6.34177 7.89139 6.22456C8.0086 6.10735 8.16757 6.0415 8.33333 6.0415H11.6667C11.8324 6.0415 11.9914 6.10735 12.1086 6.22456C12.2258 6.34177 12.2917 6.50074 12.2917 6.6665V7.02817L12.6542 6.87234C13.2792 6.60534 13.9423 6.43803 14.6192 6.3765C16.9317 6.1665 18.9583 7.98317 18.9583 10.3165V17.4998C18.9583 17.6656 18.8925 17.8246 18.7753 17.9418C18.6581 18.059 18.4991 18.1248 18.3333 18.1248H15C14.8342 18.1248 14.6753 18.059 14.5581 17.9418C14.4408 17.8246 14.375 17.6656 14.375 17.4998V11.6665C14.375 11.3902 14.2653 11.1253 14.0699 10.9299C13.8746 10.7346 13.6096 10.6248 13.3333 10.6248C13.0571 10.6248 12.7921 10.7346 12.5968 10.9299C12.4014 11.1253 12.2917 11.3902 12.2917 11.6665V17.4998C12.2917 17.6656 12.2258 17.8246 12.1086 17.9418C11.9914 18.059 11.8324 18.1248 11.6667 18.1248H8.33333C8.16757 18.1248 8.0086 18.059 7.89139 17.9418C7.77418 17.8246 7.70833 17.6656 7.70833 17.4998V6.6665ZM8.95833 7.2915V16.8748H11.0417V11.6665C11.0417 11.0587 11.2831 10.4758 11.7129 10.0461C12.1427 9.61628 12.7255 9.37484 13.3333 9.37484C13.9411 9.37484 14.524 9.61628 14.9538 10.0461C15.3836 10.4758 15.625 11.0587 15.625 11.6665V16.8748H17.7083V10.3165C17.7083 8.72984 16.3242 7.4765 14.7333 7.6215C14.1868 7.67109 13.6514 7.80606 13.1467 8.0215L11.9133 8.55067C11.8182 8.59153 11.7144 8.60812 11.6113 8.59895C11.5082 8.58978 11.4089 8.55513 11.3225 8.49812C11.2361 8.44111 11.1652 8.36353 11.1162 8.27233C11.0671 8.18114 11.0415 8.0792 11.0417 7.97567V7.2915H8.95833Z" fill="#8B888C"/>
</g>
</svg>
