<svg width="40" height="40" viewBox="0 0 40 40" fill="none" xmlns="http://www.w3.org/2000/svg">
<g id="Frame 9">
<path id="Vector 2" d="M25.9573 31.4772C21.1796 33.5904 16.5398 32.4342 14.8171 31.592C7.28304 28.56 6.7777 20.758 7.46679 17.236C9.57999 7.5888 18.6836 6.55517 22.9713 7.24425C32.251 10.1844 33.2693 18.1931 32.6185 21.8299C32.4347 23.3 31.7763 24.8926 31.47 25.5051V28.606C31.6538 29.9841 32.9247 31.4006 33.5373 31.9366C34.5479 31.7358 35.1834 29.2497 35.3748 28.0317V18.4994C34.5479 8.76025 26.7612 5.25356 22.9713 4.7176H11.9459C6.06565 5.5445 4.74872 10.0389 4.82529 12.1827V23.323C6.11159 31.4083 13.6303 34.7312 17.2289 35.382H28.0246C30.3215 35.382 32.3505 33.5444 33.0779 32.6256C30.4134 30.9718 27.2206 31.1709 25.9573 31.4772Z" fill="url(#paint0_linear_559_2900)"/>
<circle id="Ellipse 2" cx="20.2118" cy="20.1072" r="6.43148" fill="url(#paint1_linear_559_2900)"/>
</g>
<defs>
<linearGradient id="paint0_linear_559_2900" x1="20.1404" y1="4.7176" x2="20.1404" y2="40.5231" gradientUnits="userSpaceOnUse">
<stop stop-color="#A15BE4"/>
<stop offset="1" stop-color="#000EA3"/>
</linearGradient>
<linearGradient id="paint1_linear_559_2900" x1="20.2295" y1="13.6757" x2="20.2295" y2="28.6953" gradientUnits="userSpaceOnUse">
<stop stop-color="#A15BE4"/>
<stop offset="1" stop-color="#000EA3"/>
</linearGradient>
</defs>
</svg>
